<svg width="1247" height="503" viewBox="0 0 1247 503" fill="none" xmlns="http://www.w3.org/2000/svg">
<rect width="1247" height="503" rx="70" fill="white"/>
<path d="M95 337.5L210.758 137H278.53L162.771 337.5H95Z" stroke="black" stroke-width="41"/>
<path d="M388.303 266.501C404.084 266.501 413.947 283.585 406.056 297.251L401.038 305.942C379.512 343.225 339.733 366.192 296.682 366.192H225.802C210.021 366.192 200.158 349.109 208.048 335.442L241.935 276.75C245.597 270.407 252.365 266.5 259.689 266.5L388.303 266.501Z" fill="black"/>
<path d="M513.624 238V148.4H534.36V221.104H579.288V238H513.624ZM584.718 238L624.654 148.4H645.134L685.198 238H663.438L630.67 158.896H638.862L605.966 238H584.718ZM604.686 218.8L610.19 203.056H656.27L661.902 218.8H604.686ZM720.749 239.024C714.861 239.024 709.186 238.341 703.725 236.976C698.349 235.525 694.082 233.733 690.925 231.6L697.581 217.264C700.738 219.227 704.45 220.848 708.717 222.128C713.069 223.323 717.336 223.92 721.517 223.92C726.125 223.92 729.368 223.365 731.245 222.256C733.208 221.147 734.189 219.611 734.189 217.648C734.189 216.027 733.421 214.832 731.885 214.064C730.434 213.211 728.472 212.571 725.997 212.144C723.522 211.717 720.792 211.291 717.805 210.864C714.904 210.437 711.96 209.883 708.973 209.2C705.986 208.432 703.256 207.323 700.781 205.872C698.306 204.421 696.301 202.459 694.765 199.984C693.314 197.509 692.589 194.309 692.589 190.384C692.589 186.032 693.826 182.192 696.301 178.864C698.861 175.536 702.53 172.933 707.309 171.056C712.088 169.093 717.805 168.112 724.461 168.112C729.154 168.112 733.933 168.624 738.797 169.648C743.661 170.672 747.714 172.165 750.957 174.128L744.301 188.336C740.973 186.373 737.602 185.051 734.189 184.368C730.861 183.6 727.618 183.216 724.461 183.216C720.024 183.216 716.781 183.813 714.733 185.008C712.685 186.203 711.661 187.739 711.661 189.616C711.661 191.323 712.386 192.603 713.837 193.456C715.373 194.309 717.378 194.992 719.853 195.504C722.328 196.016 725.016 196.485 727.917 196.912C730.904 197.253 733.89 197.808 736.877 198.576C739.864 199.344 742.552 200.453 744.941 201.904C747.416 203.269 749.421 205.189 750.957 207.664C752.493 210.053 753.261 213.211 753.261 217.136C753.261 221.403 751.981 225.2 749.421 228.528C746.861 231.771 743.149 234.331 738.285 236.208C733.506 238.085 727.661 239.024 720.749 239.024ZM798.861 239.024C790.754 239.024 784.44 236.976 779.917 232.88C775.394 228.699 773.133 222.512 773.133 214.32V153.904H793.101V214.064C793.101 216.965 793.869 219.227 795.405 220.848C796.941 222.384 799.032 223.152 801.677 223.152C804.834 223.152 807.522 222.299 809.741 220.592L815.117 234.672C813.069 236.123 810.594 237.232 807.693 238C804.877 238.683 801.933 239.024 798.861 239.024ZM762.509 184.496V169.136H810.253V184.496H762.509ZM871.436 238V224.56L870.156 221.616V197.552C870.156 193.285 868.833 189.957 866.188 187.568C863.628 185.179 859.66 183.984 854.284 183.984C850.615 183.984 846.988 184.581 843.404 185.776C839.905 186.885 836.919 188.421 834.444 190.384L827.276 176.432C831.031 173.787 835.553 171.739 840.844 170.288C846.135 168.837 851.511 168.112 856.972 168.112C867.468 168.112 875.617 170.587 881.42 175.536C887.223 180.485 890.124 188.208 890.124 198.704V238H871.436ZM850.444 239.024C845.068 239.024 840.46 238.128 836.62 236.336C832.78 234.459 829.836 231.941 827.788 228.784C825.74 225.627 824.716 222.085 824.716 218.16C824.716 214.064 825.697 210.48 827.66 207.408C829.708 204.336 832.908 201.947 837.26 200.24C841.612 198.448 847.287 197.552 854.284 197.552H872.588V209.2H856.46C851.767 209.2 848.524 209.968 846.732 211.504C845.025 213.04 844.172 214.96 844.172 217.264C844.172 219.824 845.153 221.872 847.116 223.408C849.164 224.859 851.937 225.584 855.436 225.584C858.764 225.584 861.751 224.816 864.396 223.28C867.041 221.659 868.961 219.312 870.156 216.24L873.228 225.456C871.777 229.893 869.132 233.264 865.292 235.568C861.452 237.872 856.503 239.024 850.444 239.024ZM947.096 239.024C939.672 239.024 933.059 237.531 927.256 234.544C921.453 231.472 916.888 227.248 913.56 221.872C910.317 216.496 908.696 210.395 908.696 203.568C908.696 196.656 910.317 190.555 913.56 185.264C916.888 179.888 921.453 175.707 927.256 172.72C933.059 169.648 939.672 168.112 947.096 168.112C954.349 168.112 960.664 169.648 966.04 172.72C971.416 175.707 975.384 180.016 977.944 185.648L962.456 193.968C960.664 190.725 958.403 188.336 955.672 186.8C953.027 185.264 950.125 184.496 946.968 184.496C943.555 184.496 940.483 185.264 937.752 186.8C935.021 188.336 932.845 190.512 931.224 193.328C929.688 196.144 928.92 199.557 928.92 203.568C928.92 207.579 929.688 210.992 931.224 213.808C932.845 216.624 935.021 218.8 937.752 220.336C940.483 221.872 943.555 222.64 946.968 222.64C950.125 222.64 953.027 221.915 955.672 220.464C958.403 218.928 960.664 216.496 962.456 213.168L977.944 221.616C975.384 227.163 971.416 231.472 966.04 234.544C960.664 237.531 954.349 239.024 947.096 239.024ZM1010.7 223.92L1011.21 199.6L1043.34 169.136H1067.15L1036.3 200.496L1025.93 208.944L1010.7 223.92ZM994.186 238V143.024H1014.15V238H994.186ZM1045.51 238L1022.22 209.072L1034.76 193.584L1069.71 238H1045.51ZM1079.21 196.144V187.568L1101.36 168.368C1103.92 166.149 1105.58 164.357 1106.35 162.992C1107.2 161.627 1107.63 160.347 1107.63 159.152C1107.63 157.445 1106.86 156.037 1105.33 154.928C1103.87 153.733 1101.57 153.136 1098.41 153.136C1095.77 153.136 1093.42 153.605 1091.37 154.544C1089.33 155.483 1087.7 156.848 1086.51 158.64L1076.27 152.496C1078.4 149.339 1081.39 146.821 1085.23 144.944C1089.15 142.981 1093.93 142 1099.57 142C1106.56 142 1112.02 143.493 1115.95 146.48C1119.87 149.467 1121.84 153.349 1121.84 158.128C1121.84 160.688 1121.2 163.205 1119.92 165.68C1118.64 168.069 1115.91 171.056 1111.73 174.64L1093.93 190.128L1090.99 185.392H1123.89V196.144H1079.21Z" fill="black"/>
<path d="M526.808 344.384C523.907 344.384 521.283 343.744 518.936 342.464C516.632 341.141 514.797 339.2 513.432 336.64C512.109 334.08 511.448 330.88 511.448 327.04C511.448 323.2 512.131 320 513.496 317.44C514.904 314.88 516.76 312.96 519.064 311.68C521.411 310.4 523.992 309.76 526.808 309.76C530.136 309.76 533.08 310.485 535.64 311.936C538.2 313.387 540.227 315.413 541.72 318.016C543.213 320.576 543.96 323.584 543.96 327.04C543.96 330.496 543.213 333.525 541.72 336.128C540.227 338.731 538.2 340.757 535.64 342.208C533.08 343.659 530.136 344.384 526.808 344.384ZM508.824 344V296.512H514.968V319.104L514.328 326.976L514.712 334.848V344H508.824ZM526.296 339.008C528.472 339.008 530.413 338.517 532.12 337.536C533.869 336.555 535.235 335.168 536.216 333.376C537.24 331.541 537.752 329.429 537.752 327.04C537.752 324.608 537.24 322.517 536.216 320.768C535.235 318.976 533.869 317.589 532.12 316.608C530.413 315.627 528.472 315.136 526.296 315.136C524.163 315.136 522.221 315.627 520.472 316.608C518.765 317.589 517.4 318.976 516.376 320.768C515.395 322.517 514.904 324.608 514.904 327.04C514.904 329.429 515.395 331.541 516.376 333.376C517.4 335.168 518.765 336.555 520.472 337.536C522.221 338.517 524.163 339.008 526.296 339.008ZM555.544 356.8C553.922 356.8 552.344 356.523 550.808 355.968C549.272 355.456 547.949 354.688 546.84 353.664L549.464 349.056C550.317 349.867 551.256 350.485 552.28 350.912C553.304 351.339 554.392 351.552 555.544 351.552C557.037 351.552 558.274 351.168 559.256 350.4C560.237 349.632 561.154 348.267 562.008 346.304L564.12 341.632L564.76 340.864L578.072 310.08H584.088L567.64 347.392C566.658 349.781 565.549 351.659 564.312 353.024C563.117 354.389 561.794 355.349 560.344 355.904C558.893 356.501 557.293 356.8 555.544 356.8ZM563.608 345.088L548.12 310.08H554.52L567.704 340.288L563.608 345.088ZM621.857 344.384C619.041 344.384 616.353 344 613.793 343.232C611.276 342.464 609.292 341.525 607.841 340.416L610.401 335.552C611.852 336.533 613.644 337.365 615.777 338.048C617.91 338.731 620.086 339.072 622.305 339.072C625.164 339.072 627.212 338.667 628.449 337.856C629.729 337.045 630.369 335.915 630.369 334.464C630.369 333.397 629.985 332.565 629.217 331.968C628.449 331.371 627.425 330.923 626.145 330.624C624.908 330.325 623.521 330.069 621.985 329.856C620.449 329.6 618.913 329.301 617.377 328.96C615.841 328.576 614.433 328.064 613.153 327.424C611.873 326.741 610.849 325.824 610.081 324.672C609.313 323.477 608.929 321.899 608.929 319.936C608.929 317.888 609.505 316.096 610.657 314.56C611.809 313.024 613.43 311.851 615.521 311.04C617.654 310.187 620.172 309.76 623.073 309.76C625.292 309.76 627.532 310.037 629.793 310.592C632.097 311.104 633.974 311.851 635.425 312.832L632.801 317.696C631.265 316.672 629.665 315.968 628.001 315.584C626.337 315.2 624.673 315.008 623.009 315.008C620.321 315.008 618.316 315.456 616.993 316.352C615.67 317.205 615.009 318.315 615.009 319.68C615.009 320.832 615.393 321.728 616.161 322.368C616.972 322.965 617.996 323.435 619.233 323.776C620.513 324.117 621.921 324.416 623.457 324.672C624.993 324.885 626.529 325.184 628.065 325.568C629.601 325.909 630.988 326.4 632.225 327.04C633.505 327.68 634.529 328.576 635.297 329.728C636.108 330.88 636.513 332.416 636.513 334.336C636.513 336.384 635.916 338.155 634.721 339.648C633.526 341.141 631.841 342.315 629.665 343.168C627.489 343.979 624.886 344.384 621.857 344.384ZM653.295 344L640.687 310.08H646.511L657.711 340.8H654.959L666.607 310.08H671.791L683.183 340.8H680.495L691.951 310.08H697.455L684.783 344H678.895L668.207 315.968H669.999L659.183 344H653.295ZM706.249 344V310.08H712.393V344H706.249ZM709.321 303.552C708.126 303.552 707.124 303.168 706.313 302.4C705.545 301.632 705.161 300.693 705.161 299.584C705.161 298.432 705.545 297.472 706.313 296.704C707.124 295.936 708.126 295.552 709.321 295.552C710.516 295.552 711.497 295.936 712.265 296.704C713.076 297.429 713.481 298.347 713.481 299.456C713.481 300.608 713.097 301.589 712.329 302.4C711.561 303.168 710.558 303.552 709.321 303.552ZM744.668 344.384C741.852 344.384 739.271 343.744 736.924 342.464C734.62 341.141 732.764 339.2 731.356 336.64C729.991 334.08 729.308 330.88 729.308 327.04C729.308 323.2 729.969 320 731.292 317.44C732.657 314.88 734.492 312.96 736.796 311.68C739.143 310.4 741.767 309.76 744.668 309.76C747.996 309.76 750.94 310.485 753.5 311.936C756.06 313.387 758.087 315.413 759.58 318.016C761.073 320.576 761.82 323.584 761.82 327.04C761.82 330.496 761.073 333.525 759.58 336.128C758.087 338.731 756.06 340.757 753.5 342.208C750.94 343.659 747.996 344.384 744.668 344.384ZM726.684 356.416V310.08H732.572V319.232L732.188 327.104L732.828 334.976V356.416H726.684ZM744.156 339.008C746.332 339.008 748.273 338.517 749.98 337.536C751.729 336.555 753.095 335.168 754.076 333.376C755.1 331.541 755.612 329.429 755.612 327.04C755.612 324.608 755.1 322.517 754.076 320.768C753.095 318.976 751.729 317.589 749.98 316.608C748.273 315.627 746.332 315.136 744.156 315.136C742.023 315.136 740.081 315.627 738.332 316.608C736.625 317.589 735.26 318.976 734.236 320.768C733.255 322.517 732.764 324.608 732.764 327.04C732.764 329.429 733.255 331.541 734.236 333.376C735.26 335.168 736.625 336.555 738.332 337.536C740.081 338.517 742.023 339.008 744.156 339.008ZM793.613 344V336.832L793.293 335.488V323.264C793.293 320.661 792.525 318.656 790.989 317.248C789.495 315.797 787.234 315.072 784.205 315.072C782.199 315.072 780.237 315.413 778.317 316.096C776.397 316.736 774.775 317.611 773.453 318.72L770.893 314.112C772.642 312.704 774.733 311.637 777.165 310.912C779.639 310.144 782.221 309.76 784.909 309.76C789.559 309.76 793.143 310.891 795.661 313.152C798.178 315.413 799.437 318.869 799.437 323.52V344H793.613ZM782.477 344.384C779.959 344.384 777.741 343.957 775.821 343.104C773.943 342.251 772.493 341.077 771.469 339.584C770.445 338.048 769.933 336.32 769.933 334.4C769.933 332.565 770.359 330.901 771.213 329.408C772.109 327.915 773.538 326.72 775.501 325.824C777.506 324.928 780.194 324.48 783.565 324.48H794.317V328.896H783.821C780.749 328.896 778.679 329.408 777.613 330.432C776.546 331.456 776.013 332.693 776.013 334.144C776.013 335.808 776.674 337.152 777.997 338.176C779.319 339.157 781.154 339.648 783.501 339.648C785.805 339.648 787.81 339.136 789.517 338.112C791.266 337.088 792.525 335.595 793.293 333.632L794.509 337.856C793.698 339.861 792.269 341.461 790.221 342.656C788.173 343.808 785.591 344.384 782.477 344.384ZM813.367 344V310.08H819.255V319.296L818.679 316.992C819.617 314.645 821.196 312.853 823.415 311.616C825.633 310.379 828.364 309.76 831.607 309.76V315.712C831.351 315.669 831.095 315.648 830.839 315.648C830.625 315.648 830.412 315.648 830.199 315.648C826.913 315.648 824.311 316.629 822.391 318.592C820.471 320.555 819.511 323.392 819.511 327.104V344H813.367ZM855.955 344.384C852.541 344.384 849.512 343.637 846.867 342.144C844.221 340.651 842.131 338.603 840.595 336C839.059 333.355 838.291 330.368 838.291 327.04C838.291 323.669 839.059 320.683 840.595 318.08C842.131 315.477 844.221 313.451 846.867 312C849.512 310.507 852.541 309.76 855.955 309.76C859.325 309.76 862.333 310.507 864.979 312C867.667 313.451 869.757 315.477 871.251 318.08C872.787 320.64 873.555 323.627 873.555 327.04C873.555 330.411 872.787 333.397 871.251 336C869.757 338.603 867.667 340.651 864.979 342.144C862.333 343.637 859.325 344.384 855.955 344.384ZM855.955 339.008C858.131 339.008 860.072 338.517 861.779 337.536C863.528 336.555 864.893 335.168 865.875 333.376C866.856 331.541 867.347 329.429 867.347 327.04C867.347 324.608 866.856 322.517 865.875 320.768C864.893 318.976 863.528 317.589 861.779 316.608C860.072 315.627 858.131 315.136 855.955 315.136C853.779 315.136 851.837 315.627 850.131 316.608C848.424 317.589 847.059 318.976 846.035 320.768C845.011 322.517 844.499 324.608 844.499 327.04C844.499 329.429 845.011 331.541 846.035 333.376C847.059 335.168 848.424 336.555 850.131 337.536C851.837 338.517 853.779 339.008 855.955 339.008ZM905.355 344V336.832L905.035 335.488V323.264C905.035 320.661 904.267 318.656 902.731 317.248C901.238 315.797 898.976 315.072 895.947 315.072C893.942 315.072 891.979 315.413 890.059 316.096C888.139 316.736 886.518 317.611 885.195 318.72L882.635 314.112C884.384 312.704 886.475 311.637 888.907 310.912C891.382 310.144 893.963 309.76 896.651 309.76C901.302 309.76 904.886 310.891 907.403 313.152C909.92 315.413 911.179 318.869 911.179 323.52V344H905.355ZM894.219 344.384C891.702 344.384 889.483 343.957 887.563 343.104C885.686 342.251 884.235 341.077 883.211 339.584C882.187 338.048 881.675 336.32 881.675 334.4C881.675 332.565 882.102 330.901 882.955 329.408C883.851 327.915 885.28 326.72 887.243 325.824C889.248 324.928 891.936 324.48 895.307 324.48H906.059V328.896H895.563C892.491 328.896 890.422 329.408 889.355 330.432C888.288 331.456 887.755 332.693 887.755 334.144C887.755 335.808 888.416 337.152 889.739 338.176C891.062 339.157 892.896 339.648 895.243 339.648C897.547 339.648 899.552 339.136 901.259 338.112C903.008 337.088 904.267 335.595 905.035 333.632L906.251 337.856C905.44 339.861 904.011 341.461 901.963 342.656C899.915 343.808 897.334 344.384 894.219 344.384ZM943.093 344.384C940.277 344.384 937.696 343.744 935.349 342.464C933.045 341.141 931.189 339.2 929.781 336.64C928.416 334.08 927.733 330.88 927.733 327.04C927.733 323.2 928.394 320 929.717 317.44C931.082 314.88 932.917 312.96 935.221 311.68C937.568 310.4 940.192 309.76 943.093 309.76C946.421 309.76 949.365 310.485 951.925 311.936C954.485 313.387 956.512 315.413 958.005 318.016C959.498 320.576 960.245 323.584 960.245 327.04C960.245 330.496 959.498 333.525 958.005 336.128C956.512 338.731 954.485 340.757 951.925 342.208C949.365 343.659 946.421 344.384 943.093 344.384ZM925.109 356.416V310.08H930.997V319.232L930.613 327.104L931.253 334.976V356.416H925.109ZM942.581 339.008C944.757 339.008 946.698 338.517 948.405 337.536C950.154 336.555 951.52 335.168 952.501 333.376C953.525 331.541 954.037 329.429 954.037 327.04C954.037 324.608 953.525 322.517 952.501 320.768C951.52 318.976 950.154 317.589 948.405 316.608C946.698 315.627 944.757 315.136 942.581 315.136C940.448 315.136 938.506 315.627 936.757 316.608C935.05 317.589 933.685 318.976 932.661 320.768C931.68 322.517 931.189 324.608 931.189 327.04C931.189 329.429 931.68 331.541 932.661 333.376C933.685 335.168 935.05 336.555 936.757 337.536C938.506 338.517 940.448 339.008 942.581 339.008ZM989.278 344.384C986.462 344.384 983.881 343.744 981.534 342.464C979.23 341.141 977.374 339.2 975.966 336.64C974.601 334.08 973.918 330.88 973.918 327.04C973.918 323.2 974.579 320 975.902 317.44C977.267 314.88 979.102 312.96 981.406 311.68C983.753 310.4 986.377 309.76 989.278 309.76C992.606 309.76 995.55 310.485 998.11 311.936C1000.67 313.387 1002.7 315.413 1004.19 318.016C1005.68 320.576 1006.43 323.584 1006.43 327.04C1006.43 330.496 1005.68 333.525 1004.19 336.128C1002.7 338.731 1000.67 340.757 998.11 342.208C995.55 343.659 992.606 344.384 989.278 344.384ZM971.294 356.416V310.08H977.182V319.232L976.798 327.104L977.438 334.976V356.416H971.294ZM988.766 339.008C990.942 339.008 992.883 338.517 994.59 337.536C996.339 336.555 997.705 335.168 998.686 333.376C999.71 331.541 1000.22 329.429 1000.22 327.04C1000.22 324.608 999.71 322.517 998.686 320.768C997.705 318.976 996.339 317.589 994.59 316.608C992.883 315.627 990.942 315.136 988.766 315.136C986.633 315.136 984.691 315.627 982.942 316.608C981.235 317.589 979.87 318.976 978.846 320.768C977.865 322.517 977.374 324.608 977.374 327.04C977.374 329.429 977.865 331.541 978.846 333.376C979.87 335.168 981.235 336.555 982.942 337.536C984.691 338.517 986.633 339.008 988.766 339.008Z" fill="#4E4E4E"/>
</svg>
