<svg width="1089" height="250" viewBox="0 0 1089 250" fill="none" xmlns="http://www.w3.org/2000/svg">
<rect width="1089" height="250" fill="white"/>
<path d="M408.14 125V53.6H424.766L454.346 102.152H445.574L474.338 53.6H490.964L491.168 125H472.604L472.4 81.854H475.562L454.04 117.962H445.064L422.93 81.854H426.806V125H408.14ZM500.97 125L532.488 53.6H552.378L583.998 125H562.986L538.302 63.494H546.258L521.574 125H500.97ZM518.208 111.128L523.41 96.236H558.294L563.496 111.128H518.208ZM593.804 125V53.6H625.73C636.134 53.6 644.124 55.98 649.7 60.74C655.344 65.432 658.166 71.858 658.166 80.018C658.166 85.39 656.874 90.048 654.29 93.992C651.706 97.868 648.034 100.86 643.274 102.968C638.582 105.008 632.972 106.028 626.444 106.028H605.024L614 97.562V125H593.804ZM637.97 125L620.222 98.99H641.744L659.594 125H637.97ZM614 99.704L605.024 90.422H625.22C629.436 90.422 632.564 89.504 634.604 87.668C636.712 85.832 637.766 83.282 637.766 80.018C637.766 76.686 636.712 74.102 634.604 72.266C632.564 70.43 629.436 69.512 625.22 69.512H605.024L614 60.23V99.704ZM664.82 125L696.338 53.6H716.228L747.848 125H726.836L702.152 63.494H710.108L685.424 125H664.82ZM682.058 111.128L687.26 96.236H722.144L727.346 111.128H682.058ZM769.265 125V69.614H747.335V53.6H811.289V69.614H789.461V125H769.265ZM870.63 125V53.6H890.826V125H870.63ZM822.894 125V53.6H843.09V125H822.894ZM841.662 97.154V80.426H872.058V97.154H841.662ZM945.157 126.428C939.445 126.428 934.175 125.51 929.347 123.674C924.519 121.838 920.303 119.254 916.699 115.922C913.163 112.522 910.409 108.578 908.437 104.09C906.465 99.602 905.479 94.672 905.479 89.3C905.479 83.928 906.465 78.998 908.437 74.51C910.409 70.022 913.163 66.112 916.699 62.78C920.303 59.38 924.519 56.762 929.347 54.926C934.175 53.09 939.445 52.172 945.157 52.172C950.937 52.172 956.207 53.09 960.967 54.926C965.795 56.762 969.977 59.38 973.513 62.78C977.049 66.112 979.803 70.022 981.775 74.51C983.815 78.998 984.835 83.928 984.835 89.3C984.835 94.672 983.815 99.636 981.775 104.192C979.803 108.68 977.049 112.59 973.513 115.922C969.977 119.254 965.795 121.838 960.967 123.674C956.207 125.51 950.937 126.428 945.157 126.428ZM945.157 109.7C947.877 109.7 950.393 109.224 952.705 108.272C955.085 107.32 957.125 105.96 958.825 104.192C960.593 102.356 961.953 100.18 962.905 97.664C963.925 95.148 964.435 92.36 964.435 89.3C964.435 86.172 963.925 83.384 962.905 80.936C961.953 78.42 960.593 76.278 958.825 74.51C957.125 72.674 955.085 71.28 952.705 70.328C950.393 69.376 947.877 68.9 945.157 68.9C942.437 68.9 939.887 69.376 937.507 70.328C935.195 71.28 933.155 72.674 931.387 74.51C929.687 76.278 928.327 78.42 927.307 80.936C926.355 83.384 925.879 86.172 925.879 89.3C925.879 92.36 926.355 95.148 927.307 97.664C928.327 100.18 929.687 102.356 931.387 104.192C933.155 105.96 935.195 107.32 937.507 108.272C939.887 109.224 942.437 109.7 945.157 109.7ZM999.493 125V53.6H1016.12L1055.49 101.132H1047.64V53.6H1067.42V125H1050.8L1011.43 77.468H1019.28V125H999.493Z" fill="black"/>
<path d="M427.68 210.32C424.736 210.32 422.091 209.659 419.744 208.336C417.397 206.971 415.541 205.008 414.176 202.448C412.811 199.888 412.128 196.795 412.128 193.168C412.128 189.499 412.811 186.405 414.176 183.888C415.584 181.328 417.461 179.387 419.808 178.064C422.155 176.741 424.779 176.08 427.68 176.08C430.88 176.08 433.739 176.805 436.256 178.256C438.816 179.664 440.821 181.648 442.272 184.208C443.723 186.768 444.448 189.755 444.448 193.168C444.448 196.539 443.723 199.525 442.272 202.128C440.821 204.688 438.816 206.693 436.256 208.144C433.739 209.595 430.88 210.32 427.68 210.32ZM410.336 210V162.512H414.88V186.32L414.24 193.104L414.688 199.888V210H410.336ZM427.36 206.288C429.749 206.288 431.883 205.755 433.76 204.688C435.637 203.579 437.131 202.043 438.24 200.08C439.349 198.075 439.904 195.771 439.904 193.168C439.904 190.523 439.349 188.219 438.24 186.256C437.131 184.293 435.637 182.779 433.76 181.712C431.883 180.603 429.749 180.048 427.36 180.048C424.971 180.048 422.816 180.603 420.896 181.712C419.019 182.779 417.525 184.293 416.416 186.256C415.349 188.219 414.816 190.523 414.816 193.168C414.816 195.771 415.349 198.075 416.416 200.08C417.525 202.043 419.019 203.579 420.896 204.688C422.816 205.755 424.971 206.288 427.36 206.288ZM455.59 222.736C454.011 222.736 452.496 222.48 451.046 221.968C449.638 221.456 448.422 220.688 447.398 219.664L449.51 216.272C450.363 217.083 451.28 217.701 452.262 218.128C453.286 218.597 454.416 218.832 455.654 218.832C457.147 218.832 458.427 218.405 459.494 217.552C460.603 216.741 461.648 215.291 462.63 213.2L464.806 208.272L465.318 207.568L479.142 176.4H483.622L466.79 214.032C465.851 216.208 464.806 217.936 463.654 219.216C462.544 220.496 461.328 221.392 460.006 221.904C458.683 222.459 457.211 222.736 455.59 222.736ZM464.55 210.96L449.062 176.4H453.798L467.494 207.248L464.55 210.96Z" fill="black"/>
<path d="M520.915 210.32C518.142 210.32 515.518 209.936 513.043 209.168C510.568 208.357 508.627 207.355 507.219 206.16L509.267 202.576C510.632 203.6 512.382 204.496 514.515 205.264C516.648 205.989 518.888 206.352 521.235 206.352C524.435 206.352 526.739 205.861 528.147 204.88C529.555 203.856 530.259 202.512 530.259 200.848C530.259 199.611 529.854 198.651 529.043 197.968C528.275 197.243 527.251 196.709 525.971 196.368C524.691 195.984 523.262 195.664 521.683 195.408C520.104 195.152 518.526 194.853 516.947 194.512C515.411 194.171 514.003 193.68 512.723 193.04C511.443 192.357 510.398 191.44 509.587 190.288C508.819 189.136 508.435 187.6 508.435 185.68C508.435 183.845 508.947 182.203 509.971 180.752C510.995 179.301 512.488 178.171 514.451 177.36C516.456 176.507 518.888 176.08 521.747 176.08C523.923 176.08 526.099 176.379 528.275 176.976C530.451 177.531 532.243 178.277 533.651 179.216L531.667 182.864C530.174 181.84 528.574 181.115 526.867 180.688C525.16 180.219 523.454 179.984 521.747 179.984C518.718 179.984 516.478 180.517 515.027 181.584C513.619 182.608 512.915 183.931 512.915 185.552C512.915 186.832 513.299 187.835 514.067 188.56C514.878 189.285 515.923 189.861 517.203 190.288C518.526 190.672 519.955 190.992 521.491 191.248C523.07 191.504 524.627 191.824 526.163 192.208C527.742 192.549 529.171 193.04 530.451 193.68C531.774 194.277 532.819 195.152 533.587 196.304C534.398 197.413 534.803 198.885 534.803 200.72C534.803 202.683 534.248 204.389 533.139 205.84C532.072 207.248 530.494 208.357 528.403 209.168C526.355 209.936 523.859 210.32 520.915 210.32ZM551.924 210L539.252 176.4H543.604L555.124 207.568H553.14L564.98 176.4H568.884L580.596 207.568H578.612L590.324 176.4H594.484L581.748 210H577.46L566.196 180.688H567.54L556.212 210H551.924ZM603.886 210V176.4H608.43V210H603.886ZM606.19 168.976C605.251 168.976 604.462 168.656 603.822 168.016C603.182 167.376 602.862 166.608 602.862 165.712C602.862 164.816 603.182 164.069 603.822 163.472C604.462 162.832 605.251 162.512 606.19 162.512C607.129 162.512 607.918 162.811 608.558 163.408C609.198 164.005 609.518 164.752 609.518 165.648C609.518 166.587 609.198 167.376 608.558 168.016C607.961 168.656 607.171 168.976 606.19 168.976ZM640.978 210.32C638.076 210.32 635.452 209.659 633.106 208.336C630.759 206.971 628.882 205.029 627.474 202.512C626.108 199.952 625.426 196.837 625.426 193.168C625.426 189.499 626.108 186.405 627.474 183.888C628.839 181.328 630.695 179.387 633.042 178.064C635.388 176.741 638.034 176.08 640.978 176.08C644.178 176.08 647.036 176.805 649.554 178.256C652.114 179.664 654.119 181.669 655.57 184.272C657.02 186.832 657.746 189.797 657.746 193.168C657.746 196.581 657.02 199.568 655.57 202.128C654.119 204.688 652.114 206.693 649.554 208.144C647.036 209.595 644.178 210.32 640.978 210.32ZM623.634 222.416V176.4H627.986V186.512L627.538 193.232L628.178 200.016V222.416H623.634ZM640.658 206.288C643.047 206.288 645.18 205.755 647.058 204.688C648.935 203.579 650.428 202.043 651.538 200.08C652.647 198.075 653.202 195.771 653.202 193.168C653.202 190.565 652.647 188.283 651.538 186.32C650.428 184.357 648.935 182.821 647.058 181.712C645.18 180.603 643.047 180.048 640.658 180.048C638.268 180.048 636.114 180.603 634.194 181.712C632.316 182.821 630.823 184.357 629.714 186.32C628.647 188.283 628.114 190.565 628.114 193.168C628.114 195.771 628.647 198.075 629.714 200.08C630.823 202.043 632.316 203.579 634.194 204.688C636.114 205.755 638.268 206.288 640.658 206.288ZM690.437 210V202.576L690.245 201.36V188.944C690.245 186.085 689.434 183.888 687.813 182.352C686.234 180.816 683.866 180.048 680.709 180.048C678.533 180.048 676.464 180.411 674.501 181.136C672.538 181.861 670.874 182.821 669.509 184.016L667.461 180.624C669.168 179.173 671.216 178.064 673.605 177.296C675.994 176.485 678.512 176.08 681.157 176.08C685.509 176.08 688.858 177.168 691.205 179.344C693.594 181.477 694.789 184.741 694.789 189.136V210H690.437ZM678.853 210.32C676.336 210.32 674.138 209.915 672.261 209.104C670.426 208.251 669.018 207.099 668.037 205.648C667.056 204.155 666.565 202.448 666.565 200.528C666.565 198.779 666.97 197.2 667.781 195.792C668.634 194.341 670 193.189 671.877 192.336C673.797 191.44 676.357 190.992 679.557 190.992H691.141V194.384H679.685C676.442 194.384 674.181 194.96 672.901 196.112C671.664 197.264 671.045 198.693 671.045 200.4C671.045 202.32 671.792 203.856 673.285 205.008C674.778 206.16 676.869 206.736 679.557 206.736C682.117 206.736 684.314 206.16 686.149 205.008C688.026 203.813 689.392 202.107 690.245 199.888L691.269 203.024C690.416 205.243 688.922 207.013 686.789 208.336C684.698 209.659 682.053 210.32 678.853 210.32ZM709.691 210V176.4H714.043V185.552L713.595 183.952C714.534 181.392 716.112 179.451 718.331 178.128C720.55 176.763 723.302 176.08 726.587 176.08V180.496C726.416 180.496 726.246 180.496 726.075 180.496C725.904 180.453 725.734 180.432 725.563 180.432C722.022 180.432 719.248 181.52 717.243 183.696C715.238 185.829 714.235 188.88 714.235 192.848V210H709.691ZM750.822 210.32C747.579 210.32 744.657 209.595 742.054 208.144C739.494 206.651 737.467 204.624 735.974 202.064C734.481 199.461 733.734 196.496 733.734 193.168C733.734 189.797 734.481 186.832 735.974 184.272C737.467 181.712 739.494 179.707 742.054 178.256C744.614 176.805 747.537 176.08 750.822 176.08C754.15 176.08 757.094 176.805 759.654 178.256C762.257 179.707 764.283 181.712 765.734 184.272C767.227 186.832 767.974 189.797 767.974 193.168C767.974 196.496 767.227 199.461 765.734 202.064C764.283 204.624 762.257 206.651 759.654 208.144C757.051 209.595 754.107 210.32 750.822 210.32ZM750.822 206.288C753.254 206.288 755.409 205.755 757.286 204.688C759.163 203.579 760.635 202.043 761.702 200.08C762.811 198.075 763.366 195.771 763.366 193.168C763.366 190.523 762.811 188.219 761.702 186.256C760.635 184.293 759.163 182.779 757.286 181.712C755.409 180.603 753.275 180.048 750.886 180.048C748.497 180.048 746.363 180.603 744.486 181.712C742.609 182.779 741.115 184.293 740.006 186.256C738.897 188.219 738.342 190.523 738.342 193.168C738.342 195.771 738.897 198.075 740.006 200.08C741.115 202.043 742.609 203.579 744.486 204.688C746.363 205.755 748.475 206.288 750.822 206.288ZM800.68 210V202.576L800.488 201.36V188.944C800.488 186.085 799.677 183.888 798.056 182.352C796.477 180.816 794.109 180.048 790.952 180.048C788.776 180.048 786.706 180.411 784.744 181.136C782.781 181.861 781.117 182.821 779.752 184.016L777.704 180.624C779.41 179.173 781.458 178.064 783.848 177.296C786.237 176.485 788.754 176.08 791.4 176.08C795.752 176.08 799.101 177.168 801.448 179.344C803.837 181.477 805.032 184.741 805.032 189.136V210H800.68ZM789.096 210.32C786.578 210.32 784.381 209.915 782.504 209.104C780.669 208.251 779.261 207.099 778.28 205.648C777.298 204.155 776.808 202.448 776.808 200.528C776.808 198.779 777.213 197.2 778.024 195.792C778.877 194.341 780.242 193.189 782.12 192.336C784.04 191.44 786.6 190.992 789.8 190.992H801.384V194.384H789.928C786.685 194.384 784.424 194.96 783.144 196.112C781.906 197.264 781.288 198.693 781.288 200.4C781.288 202.32 782.034 203.856 783.528 205.008C785.021 206.16 787.112 206.736 789.8 206.736C792.36 206.736 794.557 206.16 796.392 205.008C798.269 203.813 799.634 202.107 800.488 199.888L801.512 203.024C800.658 205.243 799.165 207.013 797.032 208.336C794.941 209.659 792.296 210.32 789.096 210.32ZM837.278 210.32C834.376 210.32 831.752 209.659 829.406 208.336C827.059 206.971 825.182 205.029 823.774 202.512C822.408 199.952 821.726 196.837 821.726 193.168C821.726 189.499 822.408 186.405 823.774 183.888C825.139 181.328 826.995 179.387 829.342 178.064C831.688 176.741 834.334 176.08 837.278 176.08C840.478 176.08 843.336 176.805 845.854 178.256C848.414 179.664 850.419 181.669 851.87 184.272C853.32 186.832 854.046 189.797 854.046 193.168C854.046 196.581 853.32 199.568 851.87 202.128C850.419 204.688 848.414 206.693 845.854 208.144C843.336 209.595 840.478 210.32 837.278 210.32ZM819.934 222.416V176.4H824.286V186.512L823.838 193.232L824.478 200.016V222.416H819.934ZM836.958 206.288C839.347 206.288 841.48 205.755 843.358 204.688C845.235 203.579 846.728 202.043 847.838 200.08C848.947 198.075 849.502 195.771 849.502 193.168C849.502 190.565 848.947 188.283 847.838 186.32C846.728 184.357 845.235 182.821 843.358 181.712C841.48 180.603 839.347 180.048 836.958 180.048C834.568 180.048 832.414 180.603 830.494 181.712C828.616 182.821 827.123 184.357 826.014 186.32C824.947 188.283 824.414 190.565 824.414 193.168C824.414 195.771 824.947 198.075 826.014 200.08C827.123 202.043 828.616 203.579 830.494 204.688C832.414 205.755 834.568 206.288 836.958 206.288ZM883.213 210.32C880.311 210.32 877.687 209.659 875.341 208.336C872.994 206.971 871.117 205.029 869.709 202.512C868.343 199.952 867.661 196.837 867.661 193.168C867.661 189.499 868.343 186.405 869.709 183.888C871.074 181.328 872.93 179.387 875.277 178.064C877.623 176.741 880.269 176.08 883.213 176.08C886.413 176.08 889.271 176.805 891.789 178.256C894.349 179.664 896.354 181.669 897.805 184.272C899.255 186.832 899.981 189.797 899.981 193.168C899.981 196.581 899.255 199.568 897.805 202.128C896.354 204.688 894.349 206.693 891.789 208.144C889.271 209.595 886.413 210.32 883.213 210.32ZM865.869 222.416V176.4H870.221V186.512L869.773 193.232L870.413 200.016V222.416H865.869ZM882.893 206.288C885.282 206.288 887.415 205.755 889.293 204.688C891.17 203.579 892.663 202.043 893.773 200.08C894.882 198.075 895.437 195.771 895.437 193.168C895.437 190.565 894.882 188.283 893.773 186.32C892.663 184.357 891.17 182.821 889.293 181.712C887.415 180.603 885.282 180.048 882.893 180.048C880.503 180.048 878.349 180.603 876.429 181.712C874.551 182.821 873.058 184.357 871.949 186.32C870.882 188.283 870.349 190.565 870.349 193.168C870.349 195.771 870.882 198.075 871.949 200.08C873.058 202.043 874.551 203.579 876.429 204.688C878.349 205.755 880.503 206.288 882.893 206.288Z" fill="#7B4ED4"/>
<path fill-rule="evenodd" clip-rule="evenodd" d="M132.488 22L30.2858 148.223C21.3729 159.231 21.3729 174.972 30.2857 185.98L63.4997 227L180.988 81.8987L132.488 22ZM63.4997 177.731L54.8923 167.101L132.488 71.2685L141.095 81.8982L63.4997 177.731Z" fill="black"/>
<path d="M238.397 215.361C256.534 192.96 256.534 165.361 238.397 142.96L208.535 106.079C201.886 97.8675 185.264 97.8671 178.615 106.078L150.062 141.343C146.976 145.154 146.976 149.85 150.062 153.66L204.25 220.583C210.898 228.795 227.52 228.795 234.169 220.583L238.397 215.361Z" fill="black"/>
<path d="M134.542 169.203L86.866 227H185.09L134.542 169.203Z" fill="black"/>
<path fill-rule="evenodd" clip-rule="evenodd" d="M132.488 22L30.2858 148.223C21.3729 159.231 21.3729 174.972 30.2857 185.98L63.4997 227L180.988 81.8987L132.488 22ZM63.4997 177.731L54.8923 167.101L132.488 71.2685L141.095 81.8982L63.4997 177.731Z" stroke="black"/>
<path d="M238.397 215.361C256.534 192.96 256.534 165.361 238.397 142.96L208.535 106.079C201.886 97.8675 185.264 97.8671 178.615 106.078L150.062 141.343C146.976 145.154 146.976 149.85 150.062 153.66L204.25 220.583C210.898 228.795 227.52 228.795 234.169 220.583L238.397 215.361Z" stroke="black"/>
<path d="M134.542 169.203L86.866 227H185.09L134.542 169.203Z" stroke="black"/>
<path d="M326 84V181.5" stroke="black" stroke-width="7"/>
</svg>
