<svg width="543" height="543" viewBox="0 0 543 543" fill="none" xmlns="http://www.w3.org/2000/svg">
<rect width="543" height="543" rx="271.5" fill="white"/>
<path fill-rule="evenodd" clip-rule="evenodd" d="M125.929 376.951C98.2831 367.749 88.0211 333.893 105.9 310.872L106.331 310.326L242.293 140.825C250.9 130.096 263.244 124.92 275.5 125.001C287.756 124.92 300.1 130.096 308.707 140.825L444.669 310.326L445.1 310.872C462.979 333.893 452.717 367.749 425.071 376.951L424.409 377.165L294.866 418.035C288.399 420.075 281.792 420.478 275.5 419.47C269.208 420.478 262.601 420.075 256.134 418.035L126.591 377.165L125.929 376.951ZM399.752 333.187L353.079 275.002L321.616 357.839L399.752 333.187ZM275.5 340.319L311.802 244.743L275.5 181.823L239.198 244.743L275.5 340.319ZM229.383 357.839L197.92 275.002L151.248 333.187L229.383 357.839Z" fill="#7B4ED4"/>
</svg>
